<svg width="129" height="28" viewBox="0 0 129 28" fill="none" xmlns="http://www.w3.org/2000/svg">
<g clip-path="url(#clip0_2090_13)">
<path d="M0.480048 11.5828C0.429729 11.6898 -0.262154 14.5454 0.108947 16.5833C0.480048 18.6212 1.89526 20.3132 3.81367 21.0428C5.73207 21.7724 7.75741 21.2755 7.75741 21.2755C7.75741 21.2755 3.9206 19.269 4.25396 15.47C4.64393 11.0482 9.54372 11.3564 9.54372 11.3564C9.54372 11.3564 7.21648 9.08577 4.82634 9.46945C2.43619 9.85313 0.781961 10.9287 0.480048 11.5828Z" fill="url(#paint0_linear_2090_13)"/>
<path d="M32.6145 11.5828C32.6648 11.6898 33.3567 14.5454 32.9856 16.5833C32.6145 18.6212 31.1992 20.3132 29.2808 21.0428C27.3624 21.7724 25.3371 21.2755 25.3371 21.2755C25.3371 21.2755 29.1739 19.269 28.8405 15.47C28.4506 11.0482 23.5508 11.3564 23.5508 11.3564C23.5508 11.3564 25.878 9.08577 28.2682 9.46945C30.6583 9.85313 32.3125 10.9287 32.6145 11.5828Z" fill="url(#paint1_linear_2090_13)"/>
<path d="M14.196 9.73536C14.1331 9.67875 14.0576 9.60957 13.9696 9.53409C13.4286 9.07493 12.416 8.30757 11.202 7.6031C8.46594 6.01177 5.3902 5.6847 2.77362 7.72261C-0.245504 10.0813 0.075279 13.3898 0.03125 14.3961C0.0564094 13.7483 1.16342 12.5721 1.56597 12.1003C2.044 11.5406 2.58493 11.0311 3.20762 10.6663C4.25803 10.0436 5.44052 9.91148 6.60414 10.2008C8.33385 10.6348 9.93148 11.6475 11.1014 12.6413" fill="url(#paint2_linear_2090_13)"/>
<path d="M30.466 18.9894C29.3087 19.8951 27.8935 20.2096 26.4971 19.8511C23.8554 19.1718 21.7609 16.6433 20.2576 14.3789C20.1192 14.511 19.3456 15.2846 19.2135 15.4167C18.3266 16.2784 18.1002 16.5363 17.207 17.4169C18.4776 19.3039 19.9305 21.2852 21.8993 22.4362C23.4843 23.3608 25.3084 24.0212 27.1324 23.7319C29.7113 23.3231 32.0951 21.3292 32.8059 18.612C33.0575 17.6496 33.0889 16.6558 33.0889 15.662C32.4725 17.115 31.0636 18.5176 30.4597 18.9894H30.466Z" fill="url(#paint3_linear_2090_13)"/>
<path d="M33.0907 14.3946C33.0655 13.7468 31.9585 12.5706 31.556 12.0988C31.078 11.539 30.537 11.0295 29.9143 10.6647C28.8639 10.042 27.6814 9.90996 26.5178 10.1993C23.6874 10.91 21.2847 13.4008 19.2027 15.4262C16.6742 17.8855 14.2463 20.6782 11.2209 22.4456C9.63585 23.3702 7.8118 24.0307 5.98774 23.7413C3.4089 23.3325 1.02505 21.3386 0.314293 18.6214C0.0626992 17.6465 0.03125 16.6527 0.03125 15.6589C0.647655 17.1118 2.05658 18.5145 2.66041 18.9862C3.81774 19.8919 5.23296 20.2064 6.6293 19.8479C9.52892 19.1057 11.9631 16.5206 14.0954 14.4512C15.4603 13.1492 16.7497 11.8724 18.0517 10.6081C19.2342 9.45709 20.511 8.41926 21.9199 7.59529C24.6497 6.00396 27.7318 5.67689 30.3483 7.7148C33.3675 10.0735 33.0467 13.382 33.0907 14.382V14.3946Z" fill="url(#paint4_linear_2090_13)"/>
</g>
<path d="M40.8839 22V9.70809H43.1104V22H40.8839ZM41.9972 7.34248C41.5642 7.34248 41.2009 7.20332 40.9071 6.92502C40.6288 6.64671 40.4897 6.30656 40.4897 5.90456C40.4897 5.4871 40.6288 5.13921 40.9071 4.8609C41.2009 4.5826 41.5642 4.44344 41.9972 4.44344C42.4301 4.44344 42.7857 4.5826 43.064 4.8609C43.3578 5.12375 43.5047 5.45617 43.5047 5.85817C43.5047 6.27563 43.3655 6.63125 43.0872 6.92502C42.8089 7.20332 42.4455 7.34248 41.9972 7.34248ZM53.9249 9.59213C54.9299 9.59213 55.8112 9.7854 56.5688 10.1719C57.3419 10.5585 57.9449 11.146 58.3778 11.9345C58.8107 12.7231 59.0272 13.7204 59.0272 14.9264V22H56.8007V15.1815C56.8007 13.9909 56.507 13.0942 55.9194 12.4912C55.3473 11.8882 54.5356 11.5867 53.4842 11.5867C52.6957 11.5867 52.0077 11.7413 51.4201 12.0505C50.8326 12.3597 50.3765 12.8159 50.0518 13.4189C49.7425 14.0219 49.5879 14.7717 49.5879 15.6685V22H47.3615V9.70809H49.4952V13.0246L49.1473 12.1433C49.5493 11.3393 50.1677 10.7131 51.0027 10.2647C51.8376 9.81632 52.8117 9.59213 53.9249 9.59213ZM63.4723 22V8.61805C63.4723 7.41205 63.8202 6.45344 64.516 5.74221C65.2272 5.01552 66.2322 4.65217 67.531 4.65217C68.0103 4.65217 68.4664 4.71402 68.8993 4.83771C69.3477 4.94594 69.7265 5.12375 70.0357 5.37113L69.3632 7.06417C69.1312 6.87863 68.8684 6.73948 68.5746 6.64671C68.2808 6.53848 67.9716 6.48436 67.6469 6.48436C66.9975 6.48436 66.5028 6.6699 66.1626 7.04098C65.8225 7.39659 65.6524 7.93001 65.6524 8.64124V10.2879L65.6988 11.3084V22H63.4723ZM61.385 11.5403V9.70809H69.224V11.5403H61.385ZM71.3345 22V9.70809H73.561V22H71.3345ZM72.4477 7.34248C72.0148 7.34248 71.6515 7.20332 71.3577 6.92502C71.0794 6.64671 70.9402 6.30656 70.9402 5.90456C70.9402 5.4871 71.0794 5.13921 71.3577 4.8609C71.6515 4.5826 72.0148 4.44344 72.4477 4.44344C72.8806 4.44344 73.2363 4.5826 73.5146 4.8609C73.8083 5.12375 73.9552 5.45617 73.9552 5.85817C73.9552 6.27563 73.8161 6.63125 73.5378 6.92502C73.2595 7.20332 72.8961 7.34248 72.4477 7.34248ZM81.0251 22L75.6445 9.70809H77.9637L82.7413 20.8404H81.6281L86.4984 9.70809H88.6785L83.2979 22H81.0251ZM95.89 22.1392C94.5758 22.1392 93.4162 21.8686 92.4112 21.3274C91.4217 20.7863 90.6486 20.0441 90.092 19.101C89.5508 18.1578 89.2802 17.0755 89.2802 15.854C89.2802 14.6326 89.5431 13.5503 90.0688 12.6071C90.6099 11.664 91.3444 10.9296 92.2721 10.4039C93.2152 9.86271 94.2743 9.59213 95.4494 9.59213C96.6399 9.59213 97.6913 9.85497 98.6035 10.3807C99.5158 10.9064 100.227 11.6485 100.737 12.6071C101.263 13.5503 101.526 14.6558 101.526 15.9236C101.526 16.0164 101.518 16.1246 101.503 16.2483C101.503 16.372 101.495 16.488 101.479 16.5962H91.0197V14.9959H100.32L99.4153 15.5525C99.4307 14.764 99.2684 14.0605 98.9282 13.442C98.5881 12.8236 98.1165 12.3443 97.5135 12.0041C96.926 11.6485 96.2379 11.4707 95.4494 11.4707C94.6763 11.4707 93.9883 11.6485 93.3853 12.0041C92.7823 12.3443 92.3107 12.8313 91.9706 13.4652C91.6304 14.0837 91.4603 14.7949 91.4603 15.5989V15.97C91.4603 16.7895 91.6459 17.5239 92.0169 18.1733C92.4035 18.8072 92.9369 19.302 93.6172 19.6576C94.2975 20.0132 95.0783 20.191 95.9596 20.191C96.6863 20.191 97.3434 20.0673 97.931 19.8199C98.534 19.5725 99.0597 19.2015 99.508 18.7067L100.737 20.1446C100.181 20.794 99.4849 21.2888 98.6499 21.6289C97.8305 21.9691 96.9105 22.1392 95.89 22.1392ZM111.181 9.59213C112.186 9.59213 113.067 9.7854 113.825 10.1719C114.598 10.5585 115.201 11.146 115.634 11.9345C116.067 12.7231 116.283 13.7204 116.283 14.9264V22H114.057V15.1815C114.057 13.9909 113.763 13.0942 113.175 12.4912C112.603 11.8882 111.792 11.5867 110.74 11.5867C109.952 11.5867 109.264 11.7413 108.676 12.0505C108.089 12.3597 107.632 12.8159 107.308 13.4189C106.998 14.0219 106.844 14.7717 106.844 15.6685V22H104.617V9.70809H106.751V13.0246L106.403 12.1433C106.805 11.3393 107.424 10.7131 108.259 10.2647C109.094 9.81632 110.068 9.59213 111.181 9.59213ZM124.625 22.1392C123.388 22.1392 122.429 21.8067 121.749 21.1419C121.068 20.477 120.728 19.5262 120.728 18.2892V7.01779H122.955V18.1965C122.955 18.8613 123.117 19.3715 123.442 19.7272C123.782 20.0828 124.261 20.2606 124.88 20.2606C125.575 20.2606 126.155 20.0673 126.619 19.6808L127.315 21.281C126.975 21.5748 126.565 21.7913 126.086 21.9304C125.622 22.0696 125.135 22.1392 124.625 22.1392ZM118.641 11.5403V9.70809H126.48V11.5403H118.641Z" fill="black"/>
<defs>
<linearGradient id="paint0_linear_2090_13" x1="0.00201927" y1="15.4322" x2="9.54372" y2="15.4322" gradientUnits="userSpaceOnUse">
<stop stop-color="#00E5FF"/>
<stop offset="0.12" stop-color="#29B8FE"/>
<stop offset="0.29" stop-color="#5E81FD"/>
<stop offset="0.46" stop-color="#8952FD"/>
<stop offset="0.62" stop-color="#AB2EFC"/>
<stop offset="0.76" stop-color="#C415FC"/>
<stop offset="0.9" stop-color="#D205FC"/>
<stop offset="1" stop-color="#D800FC"/>
</linearGradient>
<linearGradient id="paint1_linear_2090_13" x1="23.5508" y1="6.29937" x2="33.0925" y2="6.29937" gradientUnits="userSpaceOnUse">
<stop stop-color="#00E5FF"/>
<stop offset="0.12" stop-color="#29B8FE"/>
<stop offset="0.29" stop-color="#5E81FD"/>
<stop offset="0.46" stop-color="#8952FD"/>
<stop offset="0.62" stop-color="#AB2EFC"/>
<stop offset="0.76" stop-color="#C415FC"/>
<stop offset="0.9" stop-color="#D205FC"/>
<stop offset="1" stop-color="#D800FC"/>
</linearGradient>
<linearGradient id="paint2_linear_2090_13" x1="0.03125" y1="10.3455" x2="14.196" y2="10.3455" gradientUnits="userSpaceOnUse">
<stop stop-color="#00E5FF"/>
<stop offset="0.12" stop-color="#29B8FE"/>
<stop offset="0.29" stop-color="#5E81FD"/>
<stop offset="0.46" stop-color="#8952FD"/>
<stop offset="0.62" stop-color="#AB2EFC"/>
<stop offset="0.76" stop-color="#C415FC"/>
<stop offset="0.9" stop-color="#D205FC"/>
<stop offset="1" stop-color="#D800FC"/>
</linearGradient>
<linearGradient id="paint3_linear_2090_13" x1="17.207" y1="19.09" x2="33.0952" y2="19.09" gradientUnits="userSpaceOnUse">
<stop stop-color="#00E5FF"/>
<stop offset="0.12" stop-color="#29B8FE"/>
<stop offset="0.29" stop-color="#5E81FD"/>
<stop offset="0.46" stop-color="#8952FD"/>
<stop offset="0.62" stop-color="#AB2EFC"/>
<stop offset="0.76" stop-color="#C415FC"/>
<stop offset="0.9" stop-color="#D205FC"/>
<stop offset="1" stop-color="#D800FC"/>
</linearGradient>
<linearGradient id="paint4_linear_2090_13" x1="-0.0448444" y1="15.7947" x2="33.0575" y2="14.3263" gradientUnits="userSpaceOnUse">
<stop stop-color="#00E5FF"/>
<stop offset="0.12" stop-color="#29B8FE"/>
<stop offset="0.29" stop-color="#5E81FD"/>
<stop offset="0.46" stop-color="#8952FD"/>
<stop offset="0.62" stop-color="#AB2EFC"/>
<stop offset="0.76" stop-color="#C415FC"/>
<stop offset="0.9" stop-color="#D205FC"/>
<stop offset="1" stop-color="#D800FC"/>
</linearGradient>
<clipPath id="clip0_2090_13">
<rect width="33.0909" height="17.5047" fill="white" transform="translate(0 6.29688)"/>
</clipPath>
</defs>
</svg>
